<svg width="490" height="64" viewBox="0 0 490 64" fill="none" xmlns="http://www.w3.org/2000/svg">
<path d="M9.9375 50.3125C9.6875 49.2708 9.6875 48.0833 9.9375 46.75C10.2292 45.375 10.625 44 11.125 42.625C11.625 41.25 12.1667 39.9375 12.75 38.6875C13.3333 37.3958 13.8125 36.3333 14.1875 35.5C14.3958 35 14.7083 34.2708 15.125 33.3125C15.5833 32.3542 16.0833 31.2708 16.625 30.0625C17.2083 28.8542 17.7917 27.5833 18.375 26.25C19 24.9167 19.5833 23.6458 20.125 22.4375C20.7083 21.2292 21.2083 20.1667 21.625 19.25C22.0833 18.2917 22.4167 17.5833 22.625 17.125C21.9167 17 20.8958 17.0625 19.5625 17.3125C18.2708 17.5625 16.8333 17.8958 15.25 18.3125C13.6667 18.6875 12.0417 19.0833 10.375 19.5C8.70833 19.9167 7.14583 20.2292 5.6875 20.4375C4.27083 20.6042 3.04167 20.625 2 20.5C1 20.3333 0.375 19.8958 0.125 19.1875C0.416667 18.6458 1.47917 18.0208 3.3125 17.3125C5.14583 16.6042 7.47917 15.875 10.3125 15.125C13.1875 14.3333 16.375 13.5417 19.875 12.75C23.4167 11.9583 27.0208 11.2083 30.6875 10.5C34.3542 9.79167 37.9375 9.14583 41.4375 8.5625C44.9375 7.97917 48.0625 7.5 50.8125 7.125C53.5625 6.75 55.7708 6.5 57.4375 6.375C59.1458 6.25 60.0417 6.29167 60.125 6.5C60.25 6.83333 60.2708 7.25 60.1875 7.75C60.1042 8.20833 59.8333 8.5 59.375 8.625C57.3333 8.95833 55.125 9.33333 52.75 9.75C50.375 10.125 47.9583 10.5417 45.5 11C43.0833 11.4167 40.7083 11.8542 38.375 12.3125C36.0417 12.7292 33.875 13.1458 31.875 13.5625C30.5833 13.8125 29.3333 14.5625 28.125 15.8125C26.9167 17.0625 25.75 18.625 24.625 20.5C23.5 22.3333 22.4167 24.3958 21.375 26.6875C20.3333 28.9375 19.3333 31.2292 18.375 33.5625C17.4583 35.8958 16.6042 38.1458 15.8125 40.3125C15.0208 42.4792 14.2917 44.3958 13.625 46.0625C12.9583 47.6875 12.375 48.9583 11.875 49.875C11.375 50.7917 10.9583 51.1667 10.625 51C10.5417 50.9167 10.4167 50.7917 10.25 50.625C10.0833 50.4583 9.97917 50.3542 9.9375 50.3125ZM35 50.3125C34.6667 49.3542 34.8542 47.875 35.5625 45.875C36.2708 43.8333 37.2292 41.5417 38.4375 39C39.6875 36.4167 41.0625 33.75 42.5625 31C44.1042 28.25 45.5 25.6875 46.75 23.3125C48.0417 20.8958 49.0833 18.8542 49.875 17.1875C50.7083 15.4792 51.0417 14.3958 50.875 13.9375C50.375 13.7708 49.8333 13.8333 49.25 14.125C48.7083 14.4167 48.1458 14.7083 47.5625 15C47.0208 15.2917 46.4792 15.4583 45.9375 15.5C45.3958 15.5417 44.9167 15.25 44.5 14.625C44.2917 14.3333 44.2083 14.0625 44.25 13.8125C44.3333 13.5208 44.4583 13.25 44.625 13C44.8333 12.75 45.0417 12.5417 45.25 12.375C45.5 12.1667 45.7083 12 45.875 11.875C50.625 8.75 55.125 6.3125 59.375 4.5625C63.6667 2.8125 67.5 1.625 70.875 1C74.2917 0.375 77.1458 0.25 79.4375 0.625C81.7708 1 83.375 1.77083 84.25 2.9375C85.125 4.0625 85.1667 5.54167 84.375 7.375C83.625 9.16667 81.8542 11.1875 79.0625 13.4375C76.3125 15.6875 72.4167 18.1042 67.375 20.6875C62.375 23.2292 56.0833 25.8333 48.5 28.5C48.0833 29.1667 48.1875 29.9167 48.8125 30.75C49.4792 31.5833 50.4375 32.5 51.6875 33.5C52.9792 34.4583 54.4792 35.4583 56.1875 36.5C57.9375 37.5417 59.6875 38.6042 61.4375 39.6875C63.2292 40.7292 64.9167 41.7708 66.5 42.8125C68.125 43.8125 69.4583 44.7708 70.5 45.6875C71.5417 46.6042 72.2083 47.4583 72.5 48.25C72.8333 49.0417 72.5625 49.7292 71.6875 50.3125C71.6458 50.3542 71.375 50.2083 70.875 49.875C70.4167 49.5 69.8333 49.0417 69.125 48.5C68.4167 47.9167 67.6458 47.2917 66.8125 46.625C66.0208 45.9583 65.25 45.3333 64.5 44.75C63.7917 44.1667 63.1667 43.6667 62.625 43.25C62.125 42.8333 61.8333 42.5833 61.75 42.5C59.25 40.9167 56.75 39.3542 54.25 37.8125C51.75 36.2708 49.3125 34.5417 46.9375 32.625C46.1458 32.375 45.3542 32.7917 44.5625 33.875C43.7708 34.9583 43 36.3542 42.25 38.0625C41.5 39.7292 40.75 41.5208 40 43.4375C39.2917 45.3125 38.625 46.9583 38 48.375C37.375 49.75 36.8125 50.6875 36.3125 51.1875C35.8125 51.7292 35.375 51.4375 35 50.3125ZM49.875 24.25C50.7917 24.5417 52.0208 24.5208 53.5625 24.1875C55.1458 23.8542 56.875 23.2917 58.75 22.5C60.6667 21.7083 62.6458 20.75 64.6875 19.625C66.7708 18.5 68.75 17.3333 70.625 16.125C72.5 14.875 74.2083 13.625 75.75 12.375C77.3333 11.125 78.5625 9.97917 79.4375 8.9375C80.3125 7.85417 80.7708 6.9375 80.8125 6.1875C80.8958 5.4375 80.3958 4.95833 79.3125 4.75C74.8125 4.66667 70.9792 4.89583 67.8125 5.4375C64.6458 5.9375 61.9375 6.89583 59.6875 8.3125C57.4375 9.72917 55.5417 11.6667 54 14.125C52.4583 16.5833 51.0833 19.7083 49.875 23.5V24.25ZM72 62.5625C71.875 62.4792 71.6875 62.2708 71.4375 61.9375C71.1458 61.6458 70.9167 61.3333 70.75 61C70.5833 60.6667 70.5208 60.375 70.5625 60.125C70.5625 59.875 70.7917 59.75 71.25 59.75C72.125 60.9583 73.3542 61.4167 74.9375 61.125C76.5208 60.8333 78.2292 60.1042 80.0625 58.9375C81.8958 57.8125 83.75 56.375 85.625 54.625C87.5417 52.9167 89.25 51.2083 90.75 49.5C92.2917 47.7917 93.5417 46.25 94.5 44.875C95.5 43.5 96 42.5833 96 42.125C96 42 95.8333 41.8125 95.5 41.5625C95.1667 41.2708 94.7708 40.9792 94.3125 40.6875C93.8958 40.3958 93.5 40.125 93.125 39.875C92.75 39.625 92.5208 39.4375 92.4375 39.3125C92.5625 38.8958 92.9583 38.5833 93.625 38.375C94.2917 38.125 95.0417 37.9167 95.875 37.75C96.7083 37.5417 97.5208 37.3542 98.3125 37.1875C99.1458 36.9792 99.7708 36.7292 100.188 36.4375C102.396 33.2292 104.312 30.3542 105.938 27.8125C107.604 25.2292 109.167 22.7083 110.625 20.25C112.125 17.75 113.646 15.1875 115.188 12.5625C116.729 9.9375 118.5 6.97917 120.5 3.6875C121.042 2.77083 121.479 2.45833 121.812 2.75C122.146 3.04167 122.396 3.75 122.562 4.875C122.729 6 122.833 7.4375 122.875 9.1875C122.917 10.8958 122.917 12.75 122.875 14.75C122.833 16.75 122.75 18.7917 122.625 20.875C122.542 22.9583 122.438 24.875 122.312 26.625C122.229 28.375 122.146 29.8958 122.062 31.1875C122.021 32.4375 122.021 33.25 122.062 33.625C122.229 35.75 122.333 37.6042 122.375 39.1875C122.458 40.7292 122.667 42.1667 123 43.5C123.333 44.7917 123.896 46.0625 124.688 47.3125C125.521 48.5208 126.771 49.8542 128.438 51.3125C127.062 51.7708 125.917 51.7292 125 51.1875C124.125 50.6875 123.396 49.9167 122.812 48.875C122.271 47.7917 121.812 46.5625 121.438 45.1875C121.104 43.7708 120.771 42.4167 120.438 41.125C120.146 39.7917 119.792 38.6458 119.375 37.6875C119 36.6875 118.479 36.0417 117.812 35.75C117.771 35.75 117.646 35.75 117.438 35.75C117.271 35.7083 117.062 35.6875 116.812 35.6875C116.604 35.6875 116.396 35.7083 116.188 35.75C115.979 35.75 115.833 35.75 115.75 35.75C115.375 35.8333 114.667 36 113.625 36.25C112.625 36.5 111.521 36.7708 110.312 37.0625C109.104 37.3542 107.938 37.6458 106.812 37.9375C105.729 38.2292 104.938 38.4375 104.438 38.5625C103.396 38.8542 102.292 39.5208 101.125 40.5625C100 41.6042 98.7917 42.875 97.5 44.375C96.25 45.8333 94.9375 47.4375 93.5625 49.1875C92.2292 50.9375 90.8542 52.6458 89.4375 54.3125C88.0208 55.9792 86.5833 57.5208 85.125 58.9375C83.6667 60.3542 82.2083 61.5 80.75 62.375C79.2917 63.25 77.8333 63.7292 76.375 63.8125C74.875 63.9375 73.4167 63.5208 72 62.5625ZM105.875 35.0625C105.958 35.1042 106.167 35.125 106.5 35.125C106.875 35.125 107.125 35.1042 107.25 35.0625C108 34.9375 108.938 34.7917 110.062 34.625C111.188 34.4583 112.312 34.2708 113.438 34.0625C114.562 33.8125 115.604 33.5417 116.562 33.25C117.521 32.9167 118.188 32.5625 118.562 32.1875C118.562 32.1875 118.625 31.75 118.75 30.875C118.875 30 119.021 28.8958 119.188 27.5625C119.354 26.1875 119.521 24.6875 119.688 23.0625C119.896 21.3958 120.083 19.7708 120.25 18.1875C120.417 16.6042 120.542 15.1458 120.625 13.8125C120.75 12.4375 120.833 11.375 120.875 10.625C120.417 10.4167 119.812 10.9583 119.062 12.25C118.312 13.5 117.333 15.2292 116.125 17.4375C114.958 19.6458 113.521 22.2292 111.812 25.1875C110.146 28.1042 108.167 31.1458 105.875 34.3125V35.0625ZM134.688 48.875C133.938 47.7083 133.292 46.0625 132.75 43.9375C132.25 41.8125 131.875 39.4583 131.625 36.875C131.417 34.2917 131.333 31.625 131.375 28.875C131.458 26.0833 131.708 23.4583 132.125 21C132.542 18.5417 133.125 16.3958 133.875 14.5625C134.667 12.7292 135.646 11.4583 136.812 10.75C137.062 10.9167 137.125 11.6875 137 13.0625C136.917 14.3958 136.729 16.1042 136.438 18.1875C136.146 20.2292 135.812 22.5 135.438 25C135.104 27.5 134.792 29.9792 134.5 32.4375C134.25 34.8958 134.083 37.2083 134 39.375C133.958 41.5 134.104 43.2708 134.438 44.6875C134.812 46.0625 135.396 46.9375 136.188 47.3125C137.021 47.6458 138.188 47.2292 139.688 46.0625C143.104 43.3542 146.417 40.375 149.625 37.125C152.875 33.8333 155.917 30.6875 158.75 27.6875C162.208 24.0208 165.5 20.3333 168.625 16.625C171.75 12.9167 174.812 9.0625 177.812 5.0625C178.188 4.52083 178.562 4.22917 178.938 4.1875C179.354 4.14583 179.708 4.27083 180 4.5625C180.292 4.85417 180.5 5.25 180.625 5.75C180.75 6.20833 180.75 6.6875 180.625 7.1875C180.333 7.52083 179.875 8.04167 179.25 8.75C178.625 9.41667 177.917 10.2083 177.125 11.125C176.333 12 175.5 12.9375 174.625 13.9375C173.75 14.8958 172.917 15.8125 172.125 16.6875C171.333 17.5625 170.625 18.3542 170 19.0625C169.375 19.7708 168.917 20.2917 168.625 20.625C167.875 21.4583 166.896 22.625 165.688 24.125C164.479 25.5833 163.125 27.2292 161.625 29.0625C160.125 30.8542 158.521 32.75 156.812 34.75C155.104 36.7083 153.354 38.6042 151.562 40.4375C149.812 42.2292 148.083 43.8958 146.375 45.4375C144.667 46.9375 143.062 48.125 141.562 49C140.062 49.8333 138.708 50.2917 137.5 50.375C136.333 50.4167 135.396 49.9167 134.688 48.875ZM165.875 49.5625C165.625 49.3542 165.688 49.125 166.062 48.875C166.479 47.375 166.896 45.9375 167.312 44.5625C167.771 43.1875 168.25 41.8333 168.75 40.5C169.25 39.125 169.771 37.75 170.312 36.375C170.896 34.9583 171.5 33.4792 172.125 31.9375C172.333 31.5625 172.292 31.1875 172 30.8125C171.75 30.3958 171.438 30 171.062 29.625C170.729 29.2083 170.479 28.7917 170.312 28.375C170.188 27.9167 170.354 27.4583 170.812 27C170.854 26.9583 171 26.8958 171.25 26.8125C171.542 26.7292 171.854 26.6667 172.188 26.625C172.521 26.5417 172.812 26.4792 173.062 26.4375C173.354 26.3542 173.542 26.2917 173.625 26.25C173.75 26.1667 173.979 25.9583 174.312 25.625C174.688 25.25 174.917 25 175 24.875C175.667 23.75 176.292 22.75 176.875 21.875C177.5 21 178.062 20.125 178.562 19.25C179.104 18.375 179.583 17.4583 180 16.5C180.417 15.5417 180.792 14.4167 181.125 13.125C181.25 12.625 181.125 12.3125 180.75 12.1875C180.417 12.0208 180.021 11.875 179.562 11.75C179.104 11.625 178.729 11.4375 178.438 11.1875C178.146 10.8958 178.125 10.375 178.375 9.625C178.542 9.16667 179.333 8.66667 180.75 8.125C182.208 7.58333 184.042 7.0625 186.25 6.5625C188.458 6.0625 190.938 5.60417 193.688 5.1875C196.438 4.77083 199.188 4.4375 201.938 4.1875C204.688 3.9375 207.312 3.79167 209.812 3.75C212.312 3.66667 214.438 3.75 216.188 4C217.938 4.20833 219.188 4.60417 219.938 5.1875C220.688 5.72917 220.667 6.5 219.875 7.5C219.5 7.58333 219.104 7.60417 218.688 7.5625C218.312 7.47917 217.917 7.375 217.5 7.25C217.083 7.125 216.646 7.02083 216.188 6.9375C215.729 6.8125 215.292 6.77083 214.875 6.8125C212.875 6.97917 210.917 7.04167 209 7C207.083 6.95833 205.167 6.9375 203.25 6.9375C201.333 6.9375 199.417 7.02083 197.5 7.1875C195.583 7.3125 193.667 7.64583 191.75 8.1875C190.417 8.5625 189.229 9.22917 188.188 10.1875C187.146 11.1042 186.146 12.2917 185.188 13.75C184.271 15.1667 183.333 16.8125 182.375 18.6875C181.458 20.5625 180.417 22.625 179.25 24.875C179.708 25 180.562 24.9167 181.812 24.625C183.104 24.3333 184.562 23.9792 186.188 23.5625C187.854 23.1042 189.604 22.6667 191.438 22.25C193.271 21.7917 194.979 21.4792 196.562 21.3125C198.188 21.1042 199.604 21.1042 200.812 21.3125C202.021 21.4792 202.833 21.9583 203.25 22.75C203.292 22.8333 203.312 22.9583 203.312 23.125C203.312 23.2917 203.292 23.3958 203.25 23.4375C201.042 23.7708 198.75 24.0833 196.375 24.375C194.042 24.625 191.708 24.9583 189.375 25.375C187.083 25.7917 184.833 26.3542 182.625 27.0625C180.417 27.7292 178.333 28.6458 176.375 29.8125C174.792 32.6042 173.375 35.4792 172.125 38.4375C170.875 41.3958 169.771 44.3958 168.812 47.4375C170.021 47.0208 171.417 46.625 173 46.25C174.625 45.8333 176.167 45.4583 177.625 45.125C179.125 44.7917 180.417 44.5208 181.5 44.3125C182.625 44.1042 183.292 43.9792 183.5 43.9375C187.042 43.3958 190.438 42.9792 193.688 42.6875C196.979 42.3542 200.396 42.2917 203.938 42.5C204.229 42.5833 204.438 42.75 204.562 43C204.688 43.25 204.771 43.5417 204.812 43.875C204.854 44.1667 204.854 44.4583 204.812 44.75C204.771 45.0417 204.729 45.25 204.688 45.375C200.146 45.125 195.625 45.2917 191.125 45.875C186.667 46.4583 182.229 47.2292 177.812 48.1875C177.104 48.3542 176.229 48.6458 175.188 49.0625C174.188 49.4792 173.146 49.8542 172.062 50.1875C171.021 50.5208 170 50.75 169 50.875C168.042 51 167.229 50.8333 166.562 50.375C166.396 50.2917 166.25 50.1875 166.125 50.0625C166 49.9375 165.917 49.7708 165.875 49.5625ZM213.188 50.3125C212.521 49.8542 212.25 49.1667 212.375 48.25C212.5 47.3333 212.792 46.3958 213.25 45.4375C213.708 44.3542 214.375 43.1667 215.25 41.875C216.583 39.3333 217.771 37.0625 218.812 35.0625C219.896 33.0208 220.896 31.1042 221.812 29.3125C222.729 27.5208 223.604 25.7917 224.438 24.125C225.271 22.4583 226.104 20.7083 226.938 18.875C227.812 17.0417 228.708 15.0833 229.625 13C230.542 10.9167 231.562 8.54167 232.688 5.875C232.771 5.70833 232.896 5.47917 233.062 5.1875C233.271 4.85417 233.5 4.60417 233.75 4.4375C234.042 4.22917 234.333 4.16667 234.625 4.25C234.917 4.29167 235.208 4.58333 235.5 5.125C235.917 5.95833 235.938 7.10417 235.562 8.5625C235.229 10.0208 234.625 11.7083 233.75 13.625C232.875 15.5 231.833 17.5417 230.625 19.75C229.417 21.9167 228.146 24.125 226.812 26.375C225.479 28.625 224.167 30.8542 222.875 33.0625C221.583 35.2708 220.438 37.3333 219.438 39.25C218.479 41.1667 217.729 42.9167 217.188 44.5C216.688 46.0417 216.521 47.2708 216.688 48.1875C219.646 48.4792 222.625 48.4583 225.625 48.125C228.625 47.7917 231.625 47.3958 234.625 46.9375C237.625 46.4375 240.625 46 243.625 45.625C246.667 45.25 249.688 45.1667 252.688 45.375C253.229 45.2917 253.688 45.4792 254.062 45.9375C254.438 46.3958 254.458 46.8958 254.125 47.4375C254.042 47.4375 253.854 47.4375 253.562 47.4375C253.312 47.3958 253.042 47.375 252.75 47.375C252.458 47.375 252.167 47.3958 251.875 47.4375C251.625 47.4375 251.438 47.4375 251.312 47.4375C248.979 47.6458 246.25 48.0208 243.125 48.5625C240 49.0625 236.771 49.5417 233.438 50C230.104 50.4583 226.771 50.8125 223.438 51.0625C220.146 51.3125 217.167 51.2917 214.5 51C214.458 51 214.25 50.9167 213.875 50.75C213.542 50.5417 213.312 50.3958 213.188 50.3125ZM260.875 50.3125C260.667 50.2292 260.167 50 259.375 49.625C258.625 49.25 257.917 48.8125 257.25 48.3125C256.583 47.8125 256.104 47.2917 255.812 46.75C255.562 46.2083 255.833 45.75 256.625 45.375C257.083 45.7917 257.708 46.2917 258.5 46.875C259.333 47.4583 260.125 47.8958 260.875 48.1875C263.167 48.3125 265.396 48.3333 267.562 48.25C269.729 48.125 271.833 47.8542 273.875 47.4375C275.958 46.9792 277.958 46.3125 279.875 45.4375C281.833 44.5208 283.729 43.3333 285.562 41.875C287.604 40.1667 288.938 38.6042 289.562 37.1875C290.229 35.7292 290.354 34.3958 289.938 33.1875C289.562 31.9375 288.75 30.7917 287.5 29.75C286.292 28.6667 284.833 27.6667 283.125 26.75C281.458 25.7917 279.667 24.9167 277.75 24.125C275.833 23.2917 274 22.5 272.25 21.75C270.5 20.9583 268.917 20.1875 267.5 19.4375C266.083 18.6875 265.042 17.9167 264.375 17.125C264.208 16.4167 264.562 15.5833 265.438 14.625C266.312 13.6667 267.521 12.6875 269.062 11.6875C270.604 10.6458 272.375 9.625 274.375 8.625C276.375 7.58333 278.417 6.64583 280.5 5.8125C282.625 4.97917 284.667 4.27083 286.625 3.6875C288.625 3.10417 290.375 2.75 291.875 2.625C293.375 2.45833 294.521 2.5625 295.312 2.9375C296.104 3.3125 296.375 4.02083 296.125 5.0625C295.833 5.10417 295.083 5.29167 293.875 5.625C292.667 5.95833 291.188 6.375 289.438 6.875C287.729 7.375 285.854 7.95833 283.812 8.625C281.812 9.29167 279.833 10 277.875 10.75C275.917 11.4583 274.104 12.1875 272.438 12.9375C270.771 13.6875 269.458 14.4167 268.5 15.125C267.542 15.8333 267 16.4792 266.875 17.0625C266.792 17.6458 267.354 18.1458 268.562 18.5625C274.646 20.3958 279.417 22.3542 282.875 24.4375C286.375 26.4792 288.833 28.5625 290.25 30.6875C291.667 32.7708 292.208 34.8333 291.875 36.875C291.542 38.9167 290.625 40.8125 289.125 42.5625C287.667 44.3125 285.75 45.875 283.375 47.25C281 48.5833 278.479 49.625 275.812 50.375C273.188 51.125 270.542 51.5208 267.875 51.5625C265.25 51.6042 262.917 51.1875 260.875 50.3125ZM294.25 48.875C294.167 48.5833 294.146 48.1875 294.188 47.6875C294.271 47.1458 294.354 46.6042 294.438 46.0625C294.562 45.5208 294.688 45.0417 294.812 44.625C294.938 44.2083 295 43.9792 295 43.9375L309.125 7.1875C309.417 6.4375 309.688 6.16667 309.938 6.375C310.188 6.54167 310.375 6.9375 310.5 7.5625C310.667 8.14583 310.75 8.83333 310.75 9.625C310.75 10.375 310.667 10.9792 310.5 11.4375C309.167 14.6042 307.812 17.7917 306.438 21C305.104 24.1667 303.812 27.375 302.562 30.625C301.354 33.8333 300.208 37.0833 299.125 40.375C298.042 43.625 297.125 46.9375 296.375 50.3125C296.042 50.5208 295.75 50.6042 295.5 50.5625C295.292 50.5208 295.083 50.4167 294.875 50.25C294.708 50.0417 294.562 49.8125 294.438 49.5625C294.354 49.3125 294.292 49.0833 294.25 48.875ZM308.75 50.3125C308.542 49.6875 308.583 49.1458 308.875 48.6875C309.167 48.1875 309.604 47.7708 310.188 47.4375C312.771 46.1458 315.292 45.0625 317.75 44.1875C320.208 43.2708 322.625 42.375 325 41.5C327.417 40.5833 329.812 39.5833 332.188 38.5C334.562 37.375 336.979 35.9375 339.438 34.1875C344.896 31.0208 349.083 28.0625 352 25.3125C354.917 22.5625 356.854 20.0833 357.812 17.875C358.771 15.625 358.896 13.6667 358.188 12C357.479 10.2917 356.25 8.91667 354.5 7.875C352.75 6.83333 350.604 6.14583 348.062 5.8125C345.562 5.4375 342.958 5.45833 340.25 5.875C337.542 6.29167 334.896 7.125 332.312 8.375C329.729 9.58333 327.5 11.2708 325.625 13.4375C325.583 13.5208 325.521 13.6667 325.438 13.875C325.354 14.0833 325.271 14.3125 325.188 14.5625C325.146 14.7708 325.083 15 325 15.25C324.958 15.4583 324.938 15.5833 324.938 15.625C323.688 18.625 322.5 21.2083 321.375 23.375C320.292 25.5 319.25 27.5625 318.25 29.5625C317.292 31.5208 316.375 33.625 315.5 35.875C314.625 38.0833 313.792 40.7708 313 43.9375C312.25 44.1875 311.708 44.1667 311.375 43.875C311.083 43.5833 310.917 43.1458 310.875 42.5625C310.833 41.9375 310.896 41.2292 311.062 40.4375C311.271 39.6458 311.5 38.875 311.75 38.125C312 37.375 312.25 36.6875 312.5 36.0625C312.75 35.4375 312.917 35 313 34.75C313.333 33.7917 313.854 32.5625 314.562 31.0625C315.271 29.5208 316.021 27.9167 316.812 26.25C317.604 24.5833 318.354 22.9792 319.062 21.4375C319.771 19.8958 320.312 18.6458 320.688 17.6875C320.312 16.4792 320.229 15.4167 320.438 14.5C320.688 13.5417 321.104 12.6875 321.688 11.9375C322.271 11.1458 322.979 10.4375 323.812 9.8125C324.646 9.14583 325.479 8.5 326.312 7.875C328.688 6.125 331.25 4.77083 334 3.8125C336.75 2.85417 339.542 2.33333 342.375 2.25C345.25 2.125 348.104 2.47917 350.938 3.3125C353.771 4.14583 356.438 5.5 358.938 7.375C360.938 9.04167 362.104 10.8542 362.438 12.8125C362.812 14.7708 362.542 16.7917 361.625 18.875C360.708 20.9167 359.271 23 357.312 25.125C355.396 27.25 353.146 29.3333 350.562 31.375C347.979 33.4167 345.167 35.3958 342.125 37.3125C339.125 39.1875 336.104 40.9375 333.062 42.5625C330.062 44.1458 327.125 45.5625 324.25 46.8125C321.417 48.0208 318.875 48.9792 316.625 49.6875C314.417 50.3958 312.604 50.8333 311.188 51C309.771 51.125 308.958 50.8958 308.75 50.3125ZM359.875 49.5625C359.625 49.3542 359.688 49.125 360.062 48.875C360.479 47.375 360.896 45.9375 361.312 44.5625C361.771 43.1875 362.25 41.8333 362.75 40.5C363.25 39.125 363.771 37.75 364.312 36.375C364.896 34.9583 365.5 33.4792 366.125 31.9375C366.333 31.5625 366.292 31.1875 366 30.8125C365.75 30.3958 365.438 30 365.062 29.625C364.729 29.2083 364.479 28.7917 364.312 28.375C364.188 27.9167 364.354 27.4583 364.812 27C364.854 26.9583 365 26.8958 365.25 26.8125C365.542 26.7292 365.854 26.6667 366.188 26.625C366.521 26.5417 366.812 26.4792 367.062 26.4375C367.354 26.3542 367.542 26.2917 367.625 26.25C367.75 26.1667 367.979 25.9583 368.312 25.625C368.688 25.25 368.917 25 369 24.875C369.667 23.75 370.292 22.75 370.875 21.875C371.5 21 372.062 20.125 372.562 19.25C373.104 18.375 373.583 17.4583 374 16.5C374.417 15.5417 374.792 14.4167 375.125 13.125C375.25 12.625 375.125 12.3125 374.75 12.1875C374.417 12.0208 374.021 11.875 373.562 11.75C373.104 11.625 372.729 11.4375 372.438 11.1875C372.146 10.8958 372.125 10.375 372.375 9.625C372.542 9.16667 373.333 8.66667 374.75 8.125C376.208 7.58333 378.042 7.0625 380.25 6.5625C382.458 6.0625 384.938 5.60417 387.688 5.1875C390.438 4.77083 393.188 4.4375 395.938 4.1875C398.688 3.9375 401.312 3.79167 403.812 3.75C406.312 3.66667 408.438 3.75 410.188 4C411.938 4.20833 413.188 4.60417 413.938 5.1875C414.688 5.72917 414.667 6.5 413.875 7.5C413.5 7.58333 413.104 7.60417 412.688 7.5625C412.312 7.47917 411.917 7.375 411.5 7.25C411.083 7.125 410.646 7.02083 410.188 6.9375C409.729 6.8125 409.292 6.77083 408.875 6.8125C406.875 6.97917 404.917 7.04167 403 7C401.083 6.95833 399.167 6.9375 397.25 6.9375C395.333 6.9375 393.417 7.02083 391.5 7.1875C389.583 7.3125 387.667 7.64583 385.75 8.1875C384.417 8.5625 383.229 9.22917 382.188 10.1875C381.146 11.1042 380.146 12.2917 379.188 13.75C378.271 15.1667 377.333 16.8125 376.375 18.6875C375.458 20.5625 374.417 22.625 373.25 24.875C373.708 25 374.562 24.9167 375.812 24.625C377.104 24.3333 378.562 23.9792 380.188 23.5625C381.854 23.1042 383.604 22.6667 385.438 22.25C387.271 21.7917 388.979 21.4792 390.562 21.3125C392.188 21.1042 393.604 21.1042 394.812 21.3125C396.021 21.4792 396.833 21.9583 397.25 22.75C397.292 22.8333 397.312 22.9583 397.312 23.125C397.312 23.2917 397.292 23.3958 397.25 23.4375C395.042 23.7708 392.75 24.0833 390.375 24.375C388.042 24.625 385.708 24.9583 383.375 25.375C381.083 25.7917 378.833 26.3542 376.625 27.0625C374.417 27.7292 372.333 28.6458 370.375 29.8125C368.792 32.6042 367.375 35.4792 366.125 38.4375C364.875 41.3958 363.771 44.3958 362.812 47.4375C364.021 47.0208 365.417 46.625 367 46.25C368.625 45.8333 370.167 45.4583 371.625 45.125C373.125 44.7917 374.417 44.5208 375.5 44.3125C376.625 44.1042 377.292 43.9792 377.5 43.9375C381.042 43.3958 384.438 42.9792 387.688 42.6875C390.979 42.3542 394.396 42.2917 397.938 42.5C398.229 42.5833 398.438 42.75 398.562 43C398.688 43.25 398.771 43.5417 398.812 43.875C398.854 44.1667 398.854 44.4583 398.812 44.75C398.771 45.0417 398.729 45.25 398.688 45.375C394.146 45.125 389.625 45.2917 385.125 45.875C380.667 46.4583 376.229 47.2292 371.812 48.1875C371.104 48.3542 370.229 48.6458 369.188 49.0625C368.188 49.4792 367.146 49.8542 366.062 50.1875C365.021 50.5208 364 50.75 363 50.875C362.042 51 361.229 50.8333 360.562 50.375C360.396 50.2917 360.25 50.1875 360.125 50.0625C360 49.9375 359.917 49.7708 359.875 49.5625ZM406.5 50.3125C406.167 49.3542 406.354 47.875 407.062 45.875C407.771 43.8333 408.729 41.5417 409.938 39C411.188 36.4167 412.562 33.75 414.062 31C415.604 28.25 417 25.6875 418.25 23.3125C419.542 20.8958 420.583 18.8542 421.375 17.1875C422.208 15.4792 422.542 14.3958 422.375 13.9375C421.875 13.7708 421.333 13.8333 420.75 14.125C420.208 14.4167 419.646 14.7083 419.062 15C418.521 15.2917 417.979 15.4583 417.438 15.5C416.896 15.5417 416.417 15.25 416 14.625C415.792 14.3333 415.708 14.0625 415.75 13.8125C415.833 13.5208 415.958 13.25 416.125 13C416.333 12.75 416.542 12.5417 416.75 12.375C417 12.1667 417.208 12 417.375 11.875C422.125 8.75 426.625 6.3125 430.875 4.5625C435.167 2.8125 439 1.625 442.375 1C445.792 0.375 448.646 0.25 450.938 0.625C453.271 1 454.875 1.77083 455.75 2.9375C456.625 4.0625 456.667 5.54167 455.875 7.375C455.125 9.16667 453.354 11.1875 450.562 13.4375C447.812 15.6875 443.917 18.1042 438.875 20.6875C433.875 23.2292 427.583 25.8333 420 28.5C419.583 29.1667 419.688 29.9167 420.312 30.75C420.979 31.5833 421.938 32.5 423.188 33.5C424.479 34.4583 425.979 35.4583 427.688 36.5C429.438 37.5417 431.188 38.6042 432.938 39.6875C434.729 40.7292 436.417 41.7708 438 42.8125C439.625 43.8125 440.958 44.7708 442 45.6875C443.042 46.6042 443.708 47.4583 444 48.25C444.333 49.0417 444.062 49.7292 443.188 50.3125C443.146 50.3542 442.875 50.2083 442.375 49.875C441.917 49.5 441.333 49.0417 440.625 48.5C439.917 47.9167 439.146 47.2917 438.312 46.625C437.521 45.9583 436.75 45.3333 436 44.75C435.292 44.1667 434.667 43.6667 434.125 43.25C433.625 42.8333 433.333 42.5833 433.25 42.5C430.75 40.9167 428.25 39.3542 425.75 37.8125C423.25 36.2708 420.812 34.5417 418.438 32.625C417.646 32.375 416.854 32.7917 416.062 33.875C415.271 34.9583 414.5 36.3542 413.75 38.0625C413 39.7292 412.25 41.5208 411.5 43.4375C410.792 45.3125 410.125 46.9583 409.5 48.375C408.875 49.75 408.312 50.6875 407.812 51.1875C407.312 51.7292 406.875 51.4375 406.5 50.3125ZM421.375 24.25C422.292 24.5417 423.521 24.5208 425.062 24.1875C426.646 23.8542 428.375 23.2917 430.25 22.5C432.167 21.7083 434.146 20.75 436.188 19.625C438.271 18.5 440.25 17.3333 442.125 16.125C444 14.875 445.708 13.625 447.25 12.375C448.833 11.125 450.062 9.97917 450.938 8.9375C451.812 7.85417 452.271 6.9375 452.312 6.1875C452.396 5.4375 451.896 4.95833 450.812 4.75C446.312 4.66667 442.479 4.89583 439.312 5.4375C436.146 5.9375 433.438 6.89583 431.188 8.3125C428.938 9.72917 427.042 11.6667 425.5 14.125C423.958 16.5833 422.583 19.7083 421.375 23.5V24.25ZM454 50.3125C453.792 50.2292 453.292 50 452.5 49.625C451.75 49.25 451.042 48.8125 450.375 48.3125C449.708 47.8125 449.229 47.2917 448.938 46.75C448.688 46.2083 448.958 45.75 449.75 45.375C450.208 45.7917 450.833 46.2917 451.625 46.875C452.458 47.4583 453.25 47.8958 454 48.1875C456.292 48.3125 458.521 48.3333 460.688 48.25C462.854 48.125 464.958 47.8542 467 47.4375C469.083 46.9792 471.083 46.3125 473 45.4375C474.958 44.5208 476.854 43.3333 478.688 41.875C480.729 40.1667 482.062 38.6042 482.688 37.1875C483.354 35.7292 483.479 34.3958 483.062 33.1875C482.688 31.9375 481.875 30.7917 480.625 29.75C479.417 28.6667 477.958 27.6667 476.25 26.75C474.583 25.7917 472.792 24.9167 470.875 24.125C468.958 23.2917 467.125 22.5 465.375 21.75C463.625 20.9583 462.042 20.1875 460.625 19.4375C459.208 18.6875 458.167 17.9167 457.5 17.125C457.333 16.4167 457.688 15.5833 458.562 14.625C459.438 13.6667 460.646 12.6875 462.188 11.6875C463.729 10.6458 465.5 9.625 467.5 8.625C469.5 7.58333 471.542 6.64583 473.625 5.8125C475.75 4.97917 477.792 4.27083 479.75 3.6875C481.75 3.10417 483.5 2.75 485 2.625C486.5 2.45833 487.646 2.5625 488.438 2.9375C489.229 3.3125 489.5 4.02083 489.25 5.0625C488.958 5.10417 488.208 5.29167 487 5.625C485.792 5.95833 484.312 6.375 482.562 6.875C480.854 7.375 478.979 7.95833 476.938 8.625C474.938 9.29167 472.958 10 471 10.75C469.042 11.4583 467.229 12.1875 465.562 12.9375C463.896 13.6875 462.583 14.4167 461.625 15.125C460.667 15.8333 460.125 16.4792 460 17.0625C459.917 17.6458 460.479 18.1458 461.688 18.5625C467.771 20.3958 472.542 22.3542 476 24.4375C479.5 26.4792 481.958 28.5625 483.375 30.6875C484.792 32.7708 485.333 34.8333 485 36.875C484.667 38.9167 483.75 40.8125 482.25 42.5625C480.792 44.3125 478.875 45.875 476.5 47.25C474.125 48.5833 471.604 49.625 468.938 50.375C466.312 51.125 463.667 51.5208 461 51.5625C458.375 51.6042 456.042 51.1875 454 50.3125Z" fill="white"/>
</svg>
